Coordinates
version=1
nRows=14
nColumns=36
inDegrees=yes

Units are S.I. units (second, meters, Newtons, ...)
If the header above contains a line with 'inDegrees', this indicates whether rotational values are in degrees (yes) or radians (no).

endheader
time	pelvis_tilt	pelvis_list	pelvis_rotation	pelvis_tx	pelvis_ty	pelvis_tz	hip_flexion_r	hip_adduction_r	hip_rotation_r	knee_angle_r	knee_angle_r_beta	ankle_angle_r	subtalar_angle_r	mtp_angle_r	hip_flexion_l	hip_adduction_l	hip_rotation_l	knee_angle_l	knee_angle_l_beta	ankle_angle_l	subtalar_angle_l	mtp_angle_l	lumbar_extension	lumbar_bending	lumbar_rotation	arm_flex_r	arm_add_r	arm_rot_r	elbow_flex_r	pro_sup_r	arm_flex_l	arm_add_l	arm_rot_l	elbow_flex_l	pro_sup_l
      4.26250000	     -3.43022170	      1.59620777	     -2.32970455	      0.37822588	      1.00053403	     -0.06938632	      4.83398289	     -3.99414598	      9.52718469	      7.11328987	      0.12415033	      5.94472156	    -13.54818700	     -7.49999987	      4.50900045	      0.73995101	     10.52651549	      8.90584036	      0.15543624	      4.86171368	    -18.78668148	     -7.49999987	    -14.03698760	      0.46643896	     -0.21601475	      7.85526179	     -9.08264973	      3.03331767	     25.16661278	     88.68951203	      8.08112905	     -6.30549621	     -3.25029322	     29.55010973	     82.55376181
      4.26666670	     -3.46368218	      1.57831315	     -2.33864723	      0.37848317	      1.00136084	     -0.06876468	      4.84927101	     -3.97547461	      9.44299301	      7.09884954	      0.12389830	      6.06662339	    -13.25643495	     -7.49999987	      4.55276055	      0.70393187	     10.48860904	      8.94720845	      0.15615825	      5.13180544	    -18.43215401	     -7.49999987	    -14.03920543	      0.44378221	     -0.23140196	      7.80186492	     -8.96601144	      1.59155602	     25.29051550	     95.24399978	      7.96798936	     -6.18474975	     -4.48192554	     29.69451395	     88.89724622
      4.27083330	     -3.47028769	      1.57787484	     -2.37295302	      0.37839708	      1.00127544	     -0.06853865	      4.82436444	     -3.95784982	      9.41548422	      7.04173053	      0.12290138	      6.09588659	    -13.24754199	     -7.49999987	      4.58424906	      0.67910186	     10.51206552	      9.02326090	      0.15748561	      5.14562227	    -18.40436687	     -7.49999987	    -14.02395005	      0.40764961	     -0.18072606	      7.76840416	     -9.00460730	      2.11049508	     25.29925301	     93.53486182	      7.93890285	     -6.26821295	     -3.84557129	     29.67208261	     87.36354608
      4.27500000	     -3.44975268	      1.56294864	     -2.38954135	      0.37830574	      0.99996781	     -0.06784228	      4.78054084	     -3.91588784	      9.41771020	      7.00911285	      0.12233210	      6.08638110	    -13.28528538	     -7.49999987	      4.58883375	      0.64558616	     10.53974408	      9.09287472	      0.15870060	      5.17084424	    -18.39405877	     -7.49999987	    -14.07684186	      0.38841616	     -0.14007289	      7.75557125	     -8.96487883	      2.08991228	     25.32069320	     92.41174879	      7.90199142	     -6.24513120	     -3.85314883	     29.75054496	     86.26027876
      4.27916670	     -3.44178677	      1.56720263	     -2.37003940	      0.37867110	      1.00100061	     -0.06797812	      4.72651592	     -3.91552029	      9.32211820	      6.95349532	      0.12136139	      6.07233530	    -13.20909002	     -7.49999987	      4.58693665	      0.62780452	     10.60445746	      9.12352884	      0.15923562	      5.17624608	    -18.32891875	     -7.49999987	    -14.05957875	      0.35425853	     -0.13972769	      7.73862208	     -8.92690710	      2.08766664	     25.27031327	     91.29541682	      7.87273568	     -6.23611124	     -3.80994957	     29.71129948	     85.08777439
      4.28333330	     -3.45541218	      1.55179338	     -2.38921064	      0.37798376	      1.00024016	     -0.06806250	      4.78228464	     -3.89212836	      9.42542696	      6.98831701	      0.12196914	      6.04651132	    -13.27400946	     -7.49999987	      4.65642621	      0.61000904	     10.60384809	      9.19831292	      0.16054085	      5.15958935	    -18.44524060	     -7.49999987	    -14.09744204	      0.34542770	     -0.12949216	      7.77840497	     -8.94784257	      1.73162287	     25.31041461	     94.87467559	      7.84839084	     -6.25577612	     -4.10242481	     29.77700609	     88.96243388
      4.28750000	     -3.36281439	      1.54951412	     -2.37423795	      0.37847896	      0.99825484	     -0.06807180	      4.70390219	     -3.88298978	      9.41996489	      7.02688667	      0.12264231	      6.02955560	    -13.38325527	     -7.49999987	      4.60681859	      0.61183792	     10.61131064	      9.29660103	      0.16225630	      5.18979447	    -18.48847989	     -7.49999987	    -14.21327313	      0.34467625	     -0.09571660	      7.76173155	     -8.96812364	      1.80419425	     25.38116622	     92.93297805	      7.86537736	     -6.21939418	     -3.93743625	     29.81589579	     87.13859328
      4.29166670	     -3.31165653	      1.54029085	     -2.33386460	      0.37806830	      0.99825391	     -0.06786398	      4.69545558	     -3.86993316	      9.43839427	      7.10724569	      0.12404484	      6.02631990	    -13.45506821	     -7.49999987	      4.64221912	      0.60948821	     10.55798828	      9.45727345	      0.16506056	      5.35180013	    -18.32728567	     -7.49999987	    -14.29105802	      0.34082348	     -0.08740686	      7.77822251	     -8.97632791	      1.94024693	     25.35380522	     91.32694594	      7.92927130	     -6.20899556	     -3.71770872	     29.72994339	     85.72586530
      4.29583330	     -3.32663794	      1.54065860	     -2.35256636	      0.37855899	      0.99856614	     -0.06836764	      4.75735079	     -3.87033195	      9.46151337	      7.20700376	      0.12578594	      5.99773257	    -13.53562191	     -7.49999987	      4.68321775	      0.62812750	     10.60025271	      9.52742556	      0.16628495	      5.30069031	    -18.45475620	     -7.49999987	    -14.23643790	      0.33845977	     -0.07587059	      7.72105445	     -9.01654472	      2.06289299	     25.46043964	     91.06922280	      7.84304035	     -6.19402074	     -3.59958769	     29.79178619	     85.51504155
      4.30000000	     -3.32046330	      1.51407496	     -2.34350924	      0.37842079	      0.99821918	     -0.06792435	      4.80739231	     -3.82248943	      9.50499541	      7.32570870	      0.12785774	      5.90291956	    -13.75748464	     -7.49999987	      4.70542571	      0.61249823	     10.60588274	      9.58332622	      0.16726060	      5.37042285	    -18.51838397	     -7.49999987	    -14.25105723	      0.35819431	     -0.07690714	      7.69988703	     -9.08630431	      2.39461096	     25.52607247	     89.81645250	      7.82212546	     -6.22167897	     -3.26908960	     29.84300164	     84.31871511
      4.30416670	     -3.35237343	      1.51491258	     -2.32171687	      0.37840015	      1.00037595	     -0.06803149	      4.84601598	     -3.81622263	      9.50023429	      7.33425146	      0.12800684	      5.89386826	    -13.73478738	     -7.49999987	      4.75176852	      0.60909260	     10.66894864	      9.58751832	      0.16733376	      5.26730543	    -18.62343698	     -7.49999987	    -14.19673657	      0.36055980	     -0.09488473	      7.63416175	     -9.07392686	      1.61186740	     25.64414777	     94.86889266	      7.74275771	     -6.16893887	     -3.87763622	     29.93961739	     89.01573164
      4.30833330	     -3.33314065	      1.48466526	     -2.28870057	      0.37820650	      1.00021152	     -0.06765000	      4.81301547	     -3.77517426	      9.46715410	      7.31315663	      0.12763866	      5.85525007	    -13.69093745	     -7.49999987	      4.75617761	      0.57188724	     10.67773816	      9.62383391	      0.16796759	      5.33266375	    -18.59029525	     -7.49999987	    -14.22256426	      0.39474196	     -0.13011533	      7.62882071	     -9.06617139	      1.70812900	     25.67769521	     93.01819776	      7.73925519	     -6.15384148	     -3.67186656	     29.87891664	     87.27093857
      4.31250000	     -3.33804833	      1.46550284	     -2.29676800	      0.37765385	      0.99881102	     -0.06767790	      4.86487533	     -3.73451212	      9.53519304	      7.37637978	      0.12874211	      5.75906866	    -13.87462653	     -7.49999987	      4.76719051	      0.54857319	     10.73641265	      9.61248423	      0.16776950	      5.29595792	    -18.69529188	     -7.49999987	    -14.21687053	      0.43539435	     -0.13569846	      7.64664612	     -9.25993090	      2.71642531	     25.78345495	     91.88927347	      7.72022932	     -6.27293741	     -2.70003164	     29.91669036	     86.21750905
      4.31666670	     -3.27467993	      1.43647798	     -2.29526290	      0.37865131	      0.99886227	     -0.06744737	      4.77021914	     -3.69369591	      9.39315511	      7.36415082	      0.12852868	      5.89781003	    -13.66807248	     -7.49999987	      4.71570634	      0.49176227	     10.67500843	      9.68523615	      0.16903926	      5.50661462	    -18.48738563	     -7.49999987	    -14.23266715	      0.41457513	     -0.15033371	      7.65213120	     -9.27400320	      2.98276323	     25.74646513	     92.46362155	      7.68664502	     -6.33735329	     -2.54459129	     29.88845651	     86.78767420
